<svg width="20" height="20" viewBox="0 0 20 20" fill="none" xmlns="http://www.w3.org/2000/svg">
<path d="M0 4C0 1.79086 1.79086 0 4 0H16C18.2091 0 20 1.79086 20 4V16C20 18.2091 18.2091 20 16 20H4C1.79086 20 0 18.2091 0 16V4Z" fill="#346CD9"/>
<path fill-rule="evenodd" clip-rule="evenodd" d="M13.75 6C13.405 6 13.0925 6.14 12.8663 6.36625L11.6163 7.61625L8.75 10.4825L7.13375 8.86625C6.9075 8.64 6.595 8.5 6.25 8.5C5.56 8.5 5 9.06 5 9.75C5 10.095 5.14 10.4075 5.36625 10.6337L7.86625 13.1337C8.0925 13.36 8.405 13.5 8.75 13.5C9.095 13.5 9.4075 13.36 9.63375 13.1337L13.3837 9.38375L14.6337 8.13375C14.86 7.9075 15 7.595 15 7.25C15 6.55937 14.44 6 13.75 6Z" fill="white"/>
<path d="M4 1H16V-1H4V1ZM19 4V16H21V4H19ZM16 19H4V21H16V19ZM1 16V4H-1V16H1ZM4 19C2.34315 19 1 17.6569 1 16H-1C-1 18.7614 1.23858 21 4 21V19ZM19 16C19 17.6569 17.6569 19 16 19V21C18.7614 21 21 18.7614 21 16H19ZM16 1C17.6569 1 19 2.34315 19 4H21C21 1.23858 18.7614 -1 16 -1V1ZM4 -1C1.23858 -1 -1 1.23858 -1 4H1C1 2.34315 2.34315 1 4 1V-1Z" fill="#346CD9"/>
</svg>
