<svg width="153" height="20" viewBox="0 0 153 20" fill="none" xmlns="http://www.w3.org/2000/svg">
<path d="M11.45 20H1.58C1.16 20 0.95 19.79 0.95 19.37V1.34C0.95 0.919999 1.16 0.71 1.58 0.71H4.13C4.55 0.71 4.76 0.919999 4.76 1.34V16.34C4.76 16.56 4.88 16.67 5.12 16.67H11.45C11.85 16.67 12.05 16.89 12.05 17.33V19.37C12.05 19.79 11.85 20 11.45 20ZM21.1766 16.7H23.3066C23.9466 16.7 24.3966 16.57 24.6566 16.31C24.9366 16.03 25.0766 15.57 25.0766 14.93V5.78C25.0766 5.14 24.9366 4.69 24.6566 4.43C24.3966 4.15 23.9466 4.01 23.3066 4.01H21.1766C20.5366 4.01 20.0866 4.15 19.8266 4.43C19.5666 4.69 19.4366 5.14 19.4366 5.78V14.93C19.4366 15.57 19.5666 16.03 19.8266 16.31C20.0866 16.57 20.5366 16.7 21.1766 16.7ZM23.9366 20H20.5766C18.9966 20 17.7766 19.58 16.9166 18.74C16.0566 17.9 15.6266 16.69 15.6266 15.11V5.6C15.6266 4.02 16.0566 2.81 16.9166 1.97C17.7766 1.13 18.9966 0.71 20.5766 0.71H23.9366C25.5166 0.71 26.7366 1.13 27.5966 1.97C28.4566 2.81 28.8866 4.02 28.8866 5.6V15.11C28.8866 16.69 28.4566 17.9 27.5966 18.74C26.7366 19.58 25.5166 20 23.9366 20ZM41.8093 20H38.6293C37.0493 20 35.8293 19.58 34.9693 18.74C34.1093 17.9 33.6793 16.69 33.6793 15.11V5.6C33.6793 4.02 34.1093 2.81 34.9693 1.97C35.8293 1.13 37.0493 0.71 38.6293 0.71H41.8093C43.3693 0.71 44.5793 1.14 45.4393 2C46.2993 2.84 46.7293 4.04 46.7293 5.6V6.5C46.7293 6.94 46.5193 7.16 46.0993 7.16H43.5493C43.1293 7.16 42.9193 6.94 42.9193 6.5V5.78C42.9193 5.14 42.7893 4.69 42.5293 4.43C42.2693 4.15 41.8193 4.01 41.1793 4.01H39.2293C38.6093 4.01 38.1593 4.15 37.8793 4.43C37.6193 4.69 37.4893 5.14 37.4893 5.78V14.93C37.4893 15.57 37.6193 16.03 37.8793 16.31C38.1593 16.57 38.6093 16.7 39.2293 16.7H41.1793C41.8193 16.7 42.2693 16.57 42.5293 16.31C42.7893 16.03 42.9193 15.57 42.9193 14.93V13.04C42.9193 12.82 42.8093 12.71 42.5893 12.71H40.7893C40.3693 12.71 40.1593 12.5 40.1593 12.08V10.04C40.1593 9.62 40.3693 9.41 40.7893 9.41H46.0393C46.4993 9.41 46.7293 9.64 46.7293 10.1V15.11C46.7293 16.67 46.2993 17.88 45.4393 18.74C44.5793 19.58 43.3693 20 41.8093 20ZM57.077 16.7H59.207C59.847 16.7 60.297 16.57 60.557 16.31C60.837 16.03 60.977 15.57 60.977 14.93V5.78C60.977 5.14 60.837 4.69 60.557 4.43C60.297 4.15 59.847 4.01 59.207 4.01H57.077C56.437 4.01 55.987 4.15 55.727 4.43C55.467 4.69 55.337 5.14 55.337 5.78V14.93C55.337 15.57 55.467 16.03 55.727 16.31C55.987 16.57 56.437 16.7 57.077 16.7ZM59.837 20H56.477C54.897 20 53.677 19.58 52.817 18.74C51.957 17.9 51.527 16.69 51.527 15.11V5.6C51.527 4.02 51.957 2.81 52.817 1.97C53.677 1.13 54.897 0.71 56.477 0.71H59.837C61.417 0.71 62.637 1.13 63.497 1.97C64.357 2.81 64.787 4.02 64.787 5.6V15.11C64.787 16.69 64.357 17.9 63.497 18.74C62.637 19.58 61.417 20 59.837 20ZM75.1297 16.7H77.2597C77.8997 16.7 78.3497 16.57 78.6097 16.31C78.8897 16.03 79.0297 15.57 79.0297 14.93V5.78C79.0297 5.14 78.8897 4.69 78.6097 4.43C78.3497 4.15 77.8997 4.01 77.2597 4.01H75.1297C74.4897 4.01 74.0397 4.15 73.7797 4.43C73.5197 4.69 73.3897 5.14 73.3897 5.78V14.93C73.3897 15.57 73.5197 16.03 73.7797 16.31C74.0397 16.57 74.4897 16.7 75.1297 16.7ZM77.8897 20H74.5297C72.9497 20 71.7297 19.58 70.8697 18.74C70.0097 17.9 69.5797 16.69 69.5797 15.11V5.6C69.5797 4.02 70.0097 2.81 70.8697 1.97C71.7297 1.13 72.9497 0.71 74.5297 0.71H77.8897C79.4697 0.71 80.6897 1.13 81.5497 1.97C82.4097 2.81 82.8397 4.02 82.8397 5.6V15.11C82.8397 16.69 82.4097 17.9 81.5497 18.74C80.6897 19.58 79.4697 20 77.8897 20ZM89.9424 20H87.0624C86.7024 20 86.5824 19.79 86.7024 19.37L91.4424 1.34C91.5824 0.919999 91.8824 0.71 92.3424 0.71H96.3324C96.8324 0.71 97.1324 0.919999 97.2324 1.34L101.972 19.37C102.092 19.79 101.972 20 101.612 20H98.7324C98.5124 20 98.3624 19.96 98.2824 19.88C98.2024 19.78 98.1424 19.61 98.1024 19.37L97.2624 16.07H91.4124L90.5724 19.37C90.5324 19.61 90.4624 19.78 90.3624 19.88C90.2824 19.96 90.1424 20 89.9424 20ZM94.2924 4.34L92.1324 13.01H96.5724L94.4124 4.34H94.2924ZM116.002 0.71H118.522C118.962 0.71 119.182 0.91 119.182 1.31V15.11C119.182 16.67 118.742 17.88 117.862 18.74C117.002 19.58 115.792 20 114.232 20H110.932C109.352 20 108.132 19.58 107.272 18.74C106.412 17.9 105.982 16.69 105.982 15.11V1.34C105.982 0.919999 106.192 0.71 106.612 0.71H109.162C109.582 0.71 109.792 0.919999 109.792 1.34V14.93C109.792 15.57 109.922 16.03 110.182 16.31C110.462 16.57 110.912 16.7 111.532 16.7H113.602C114.242 16.7 114.692 16.57 114.952 16.31C115.232 16.03 115.372 15.57 115.372 14.93V1.34C115.372 0.919999 115.582 0.71 116.002 0.71ZM130.389 20H127.869C127.429 20 127.209 19.79 127.209 19.37V4.34C127.209 4.12 127.099 4.01 126.879 4.01H123.459C123.039 4.01 122.829 3.8 122.829 3.38V1.34C122.829 0.919999 123.039 0.71 123.459 0.71H134.799C135.219 0.71 135.429 0.919999 135.429 1.34V3.38C135.429 3.8 135.219 4.01 134.799 4.01H131.379C131.139 4.01 131.019 4.12 131.019 4.34V19.37C131.019 19.79 130.809 20 130.389 20ZM144.47 16.7H146.6C147.24 16.7 147.69 16.57 147.95 16.31C148.23 16.03 148.37 15.57 148.37 14.93V5.78C148.37 5.14 148.23 4.69 147.95 4.43C147.69 4.15 147.24 4.01 146.6 4.01H144.47C143.83 4.01 143.38 4.15 143.12 4.43C142.86 4.69 142.73 5.14 142.73 5.78V14.93C142.73 15.57 142.86 16.03 143.12 16.31C143.38 16.57 143.83 16.7 144.47 16.7ZM147.23 20H143.87C142.29 20 141.07 19.58 140.21 18.74C139.35 17.9 138.92 16.69 138.92 15.11V5.6C138.92 4.02 139.35 2.81 140.21 1.97C141.07 1.13 142.29 0.71 143.87 0.71H147.23C148.81 0.71 150.03 1.13 150.89 1.97C151.75 2.81 152.18 4.02 152.18 5.6V15.11C152.18 16.69 151.75 17.9 150.89 18.74C150.03 19.58 148.81 20 147.23 20Z" fill="white"/>
</svg>
